{"title":"Kara Sevda S01E04DVB-T.X264.ARI Greek Subs","uid":14933854,"size":484757274,"categoryP":"video","categoryS":"tv_shows","magnet":"?xt=urn:btih:0cbbe1a434c78b8dd2266cebdd0af11bd201750e&amp;dn=Kara+Sevda+S01E04DVB-T.X264.ARI+Greek+Subs&amp;tr=udp%3A%2F%2Ftracker.leechers-paradise.org%3A6969&amp;tr=udp%3A%2F%2Fzer0day.ch%3A1337&amp;tr=udp%3A%2F%2Fopen.demonii.com%3A1337&amp;tr=udp%3A%2F%2Ftracker.coppersurfer.tk%3A6969&amp;tr=udp%3A%2F%2Fexodus.desync.com%3A6969","seeders":0,"leechers":1,"uploader":"Aris2015","files":1,"time":1465981940,"description":"General\r\nComplete name               : Kara Sevda S01E05DVB-T.X264.ARI.mp4\r\nFormat                      : MPEG-4\r\nFormat profile              : Base Media\r\nCodec ID                    : isom (isom/iso2/avc1/mp41)\r\nFile size                   : 462 MiB\r\nDuration                    : 57mn 0s\r\nOverall bit rate mode       : Variable\r\nOverall bit rate            : 1 134 Kbps\r\nMovie name                  : Kara Sevda S01E05DVB-T.X264.ARI\r\nPerformer                   : ARI\r\nGenre                       : DRAMA\r\nEncoded date                : UTC 2016-06-14 22:53:09\r\nTagged date                 : UTC 2016-06-14 22:53:09\r\nWriting application         : Lavf57.26.100\r\nCopyright                   : MEGA TV\r\n\r\nVideo\r\nID                          : 1\r\nFormat                      : AVC\r\nFormat/Info                 : Advanced Video Codec\r\nFormat profile              :   \r\nFormat settings, CABAC      : Yes\r\nFormat settings, ReFrames   : 16 frames\r\nCodec ID                    : avc1\r\nCodec ID/Info               : Advanced Video Coding\r\nDuration                    : 57mn 0s\r\nBit rate mode               : Variable\r\nBit rate                    : 1 000 Kbps\r\nMaximum bit rate            : 17.5 Mbps\r\nWidth                       : 720 pixels\r\nHeight                      : 576 pixels\r\nDisplay aspect ratio        : 16:9\r\nFrame rate mode             : Constant\r\nFrame rate                  : 25.000 fps\r\nStandard                    : PAL\r\nColor space                 : YUV\r\nChroma subsampling          : 4:2:0\r\nBit depth                   : 8 bits\r\nScan type                   : Progressive\r\nBits/(Pixel*Frame)          : 0.096\r\nStream size                 : 408 MiB (88%)\r\nWriting library             : x264 core 148 r2665\r\nEncoding settings           : cabac=1 / ref=16 / deblock=1:0:0 / analyse=0x3:0x133 / me=umh / subme=10 / psy=1 / psy_rd=1.00:0.10 / mixed_ref=0 / me_range=24 / chroma_me=1 / trellis=2 / 8x8dct=1 / cqm=0 / deadzone=21,11 / fast_pskip=1 / chroma_qp_offset=-3 / threads=3 / lookahead_threads=1 / sliced_threads=0 / nr=0 / decimate=1 / interlaced=0 / bluray_compat=0 / constrained_intra=0 / bframes=5 / b_pyramid=0 / b_adapt=2 / b_bias=0 / direct=1 / weightb=1 / open_gop=0 / weightp=2 / keyint=250 / keyint_min=25 / scenecut=40 / intra_refresh=0 / rc_lookahead=60 / rc=2pass / mbtree=1 / bitrate=1000 / ratetol=1.0 / qcomp=0.60 / qpmin=10 / qpmax=69 / qpstep=4 / cplxblur=20.0 / qblur=0.5 / vbv_maxrate=17500 / vbv_bufsize=17500 / nal_hrd=vbr / filler=0 / ip_ratio=1.40 / aq=1:1.20\r\nLanguage                    : Turkish\r\nEncoded date                : UTC 2016-06-14 22:53:09\r\nTagged date                 : UTC 2016-06-14 22:53:09\r\n\r\nAudio\r\nID                          : 2\r\nFormat                      : AAC\r\nFormat/Info                 : Advanced Audio Codec\r\nFormat profile              : LC\r\nCodec ID                    : 40\r\nDuration                    : 57mn 0s\r\nDuration_LastFrame          : -13ms\r\nBit rate mode               : Constant\r\nBit rate                    : 128 Kbps\r\nChannel(s)                  : 2 channels\r\nChannel positions           : Front: L R\r\nSampling rate               : 48.0 KHz\r\nFrame rate                  : 46.875 fps (1024 spf)\r\nCompression mode            : Lossy\r\nStream size                 : 52.2 MiB (11%)\r\nLanguage                    : Turkish\r\nDefault                     : Yes","torrent":{"xt":"urn:btih:0cbbe1a434c78b8dd2266cebdd0af11bd201750e","amp;dn":"Kara+Sevda+S01E04DVB-T.X264.ARI+Greek+Subs","amp;tr":["udp%3A%2F%2Ftracker.leechers-paradise.org%3A6969","udp%3A%2F%2Fzer0day.ch%3A1337","udp%3A%2F%2Fopen.demonii.com%3A1337","udp%3A%2F%2Ftracker.coppersurfer.tk%3A6969","udp%3A%2F%2Fexodus.desync.com%3A6969"],"infoHash":"0cbbe1a434c78b8dd2266cebdd0af11bd201750e","infoHashBuffer":{"type":"Buffer","data":[12,187,225,164,52,199,139,141,210,38,108,235,221,10,241,27,210,1,117,14]},"announce":[],"urlList":[]}}